PathFileType	4	(X/Y/Z)	KinectSkeleton.trc																																																	
DataRate	CameraRate	NumFrames	NumMarkers	Units	OrigDataRate	OrigDataStartFrame	OrigNumFrames																																													
60	60	11	17	mm	60	1	300																																													
Frame#	Time	Neck			ShoulderMid			R.Shoulder			L.Shoulder			R.Elbow			L.Elbow			R.Wrist			L.Wrist			HipCenter			R.Hip			L.Hip			R.Knee			L.Knee			R.Ankle			L.Ankle			R.Foot			L.Foot		
		X1	Y1	Z1	X2	Y2	Z2	X3	Y3	Z3	X4	Y4	Z4	X5	Y5	Z5	X6	Y6	Z6	X7	Y7	Z7	X8	Y8	Z8	X9	Y9	Z9	X10	Y10	Z10	X11	Y11	Z11	X12	Y12	Z12	X13	Y13	Z13	X14	Y14	Z14	X15	Y15	Z15	X16	Y16	Z16	X17	Y17	Z17
																																																				
1	0.061	-1465.645	1486.734	508.755	-1465.645	1486.734	508.755	-1494.027	1405.729	665.26	-1432.774	1422.07	335.064	-1606.666	1154.556	740.193	-1467.337	1156.429	253.599	-1570.295	925.053	791.553	-1351.936	951.725	251.54	-1485.135	942.423	504.018	-1498.257	943.26	586.283	-1470.582	941.495	412.79	-1526.283	539.545	606.426	-1507.257	539.1	377.229	-1617.63	158.943	590.606	-1612.131	168.894	330.087	-1505.914	47.162	664.924	-1479.408	33.771	342.564
2	0.129	-1467.094	1486.88	487.833	-1467.094	1486.88	487.833	-1497.602	1410.396	647.808	-1434.847	1421.68	313.027	-1606.138	1156.236	728.602	-1470.119	1154.396	228.353	-1550.809	929.061	783.522	-1335.341	959.46	237.708	-1494.744	937.884	494.599	-1508.976	940.752	577.417	-1478.961	934.704	402.758	-1527.963	533.546	609.881	-1522.386	528.717	373.081	-1614.566	147.876	601.832	-1620.271	152.125	332.263	-1497.584	39.341	676.675	-1468.449	36.357	347.989
3	0.219	-1469.791	1481.901	462.422	-1469.791	1481.901	462.422	-1498.996	1408.299	624.049	-1439.662	1418.122	286.59	-1599.378	1150.521	706.358	-1468.55	1148.807	203.699	-1523.167	927.273	754.453	-1329.995	956.156	218.185	-1503.762	932.106	472.101	-1517.864	935.792	555.112	-1488.124	928.017	380.045	-1530.635	528.847	602.679	-1534.885	520.857	359.395	-1615.099	141.693	608.229	-1622.915	139.725	331.29	-1492.887	36.654	680.656	-1462.243	36.009	348.685
4	0.294	-1471.864	1482.919	445.692	-1471.864	1482.919	445.692	-1499.215	1408.657	608.503	-1441.066	1420.937	268.721	-1591.165	1145.526	689.043	-1476.617	1149.812	189.287	-1499.716	926.501	736.351	-1334.667	957.646	195.609	-1508.156	930.438	458.784	-1522.014	934.929	542.246	-1492.789	925.458	366.227	-1538.228	526.433	593.926	-1543.255	516.292	351.901	-1612.6	135.389	610.16	-1626.132	131.446	330.748	-1480.777	36.77	676.799	-1459.153	36.368	349.239
5	0.37	-1477.344	1483.001	429.995	-1477.344	1483.001	429.995	-1501.009	1410.496	594.435	-1450.707	1418.977	252.741	-1583.517	1144.739	678.019	-1476.353	1144.342	180.401	-1473.712	932.452	718.241	-1350.442	940.893	174.356	-1512.908	929.968	449.343	-1527.422	935.497	532.755	-1496.812	923.837	356.842	-1545.079	526.789	586.943	-1546.829	514.007	342.913	-1620.323	135.669	609.935	-1628.684	128.305	322.863	-1486.132	40.435	677.445	-1459.76	38.375	350.213
6	0.43	-1478.732	1481.369	426.186	-1478.732	1481.369	426.186	-1504.163	1409.61	589.999	-1452.404	1419.988	249.018	-1577.582	1143.098	676.449	-1492.168	1150.004	169.434	-1463.946	933.264	714.264	-1367.81	946.438	165.06	-1515.143	930.025	444.306	-1529.924	935.314	527.416	-1498.751	924.16	352.14	-1544.311	528.067	583.689	-1548.147	515.454	341.732	-1617.692	137.934	607.787	-1625.636	129.915	325.979	-1486.714	40.797	677.398	-1458.204	37.738	350.613
7	0.492	-1480.596	1482.641	422.001	-1480.596	1482.641	422.001	-1505.679	1410.691	586.082	-1456.699	1419.671	244.812	-1578.753	1144.585	674.667	-1496.413	1149.719	164.452	-1462.656	935.433	709.665	-1373.529	945.077	160.335	-1516.453	930.859	442.273	-1532.103	936.371	525.264	-1499.096	924.746	350.239	-1548.397	528.816	580.695	-1548.426	515.751	340.514	-1615.381	137.446	607.393	-1625.893	129.935	325.185	-1483.844	40.836	676.971	-1457.797	38.866	350.368
8	0.566	-1481.258	1481.628	421.466	-1481.258	1481.628	421.466	-1506.15	1410.061	585.461	-1461.979	1421.328	242.916	-1576.3	1143.586	675.374	-1505.163	1152.045	162.016	-1462.538	933.259	711.129	-1383.957	946.369	158.582	-1516.661	929.877	440.397	-1531.495	935.513	523.537	-1500.21	923.627	348.197	-1551.082	528.038	578.751	-1551.275	514.779	339.802	-1621.59	137.401	607.563	-1632.352	129.651	324.955	-1488.501	43.12	677.422	-1464.004	38.501	348.219
9	0.646	-1484.6	1477.181	415.069	-1484.6	1477.181	415.069	-1508.165	1407.726	579.249	-1468.207	1417.917	237.254	-1575.263	1144.099	675.418	-1522.425	1151.243	158.944	-1474.373	930.589	721.9	-1406.431	943.961	150.801	-1519.16	928.142	440.146	-1535.761	934.757	522.484	-1500.749	920.806	348.837	-1549.799	529.209	579.583	-1551.772	513.857	340.017	-1618.508	139.916	605.789	-1631.144	130.254	324.044	-1491.767	41.729	679.894	-1464.505	38.106	348.384
10	0.705	-1485.911	1478.141	414.663	-1485.911	1478.141	414.663	-1509.076	1408.462	579.043	-1472.309	1419.486	236.265	-1578.139	1144.881	674.946	-1532.078	1153.965	156.899	-1480.037	929.727	721.26	-1420.071	944.378	144.838	-1520.498	928.466	439.752	-1537.076	935.104	522.193	-1502.113	921.105	348.328	-1551.5	529.153	579.743	-1552.527	513.593	339.899	-1620.187	139.419	606.373	-1629.863	129.086	324.551	-1492.272	42.402	680.488	-1462.543	37.97	349.848
11	0.782	-1488.71	1477.36	411.732	-1488.71	1477.36	411.732	-1511.053	1408.284	576.337	-1477.781	1419.472	233.18	-1582.817	1146.142	673.75	-1546.204	1156.413	153.12	-1488.769	929.521	720.99	-1437.952	945.165	138.421	-1523.594	928.009	437.796	-1540.157	934.784	520.185	-1505.227	920.496	346.43	-1554.504	529.06	577.868	-1555.578	513.166	339.055	-1620.913	139.229	605.84	-1630.979	128.421	325.177	-1493.266	41.667	679.487	-1461.919	40.276	348.613
